<svg width="19" height="18" viewBox="0 0 19 18" fill="none" xmlns="http://www.w3.org/2000/svg">
<g clip-path="url(#clip0_512_3633)">
<path d="M18.3281 5.73047V4.78125C18.3281 3.69394 17.4467 2.8125 16.3594 2.8125H2.29688C1.20956 2.8125 0.328125 3.69394 0.328125 4.78125V5.73047C0.328125 5.82754 0.40684 5.90625 0.503906 5.90625H18.1523C18.2494 5.90625 18.3281 5.82754 18.3281 5.73047Z" fill="#151515"/>
<path d="M0.328125 7.20703V13.2188C0.328125 14.3061 1.20956 15.1875 2.29688 15.1875H16.3594C17.4467 15.1875 18.3281 14.3061 18.3281 13.2188V7.20703C18.3281 7.10996 18.2494 7.03125 18.1523 7.03125H0.503906C0.40684 7.03125 0.328125 7.10996 0.328125 7.20703ZM4.82812 11.8125C4.82812 12.1231 4.57627 12.375 4.26562 12.375H3.70312C3.39248 12.375 3.14062 12.1231 3.14062 11.8125V11.25C3.14062 10.9394 3.39248 10.6875 3.70312 10.6875H4.26562C4.57627 10.6875 4.82812 10.9394 4.82812 11.25V11.8125Z" fill="#151515"/>
</g>
<defs>
<clipPath id="clip0_512_3633">
<rect width="18" height="18" fill="white" transform="translate(0.328125)"/>
</clipPath>
</defs>
</svg>
