<svg width="100" height="100" viewBox="0 0 100 100" fill="none" xmlns="http://www.w3.org/2000/svg">
<path d="M50 10C27.9484 10 10 27.9484 10 50C10 62.1045 15.4257 72.951 23.9518 80.293L20.8333 84.4596C20.2958 85.0691 19.9995 85.854 20 86.6667C20 87.5507 20.3512 88.3986 20.9763 89.0237C21.6014 89.6488 22.4493 90 23.3333 90H50H76.6667C77.5507 90 78.3986 89.6488 79.0237 89.0237C79.6488 88.3986 80 87.5507 80 86.6667C79.9986 85.8739 79.7147 85.1075 79.1992 84.5052L76.0482 80.293C84.5743 72.951 90 62.1045 90 50C90 27.9484 72.0516 10 50 10ZM86.6667 13.3333C85.7826 13.3333 84.9348 13.6845 84.3096 14.3096C83.6845 14.9348 83.3333 15.7826 83.3333 16.6667C83.3333 17.5507 83.6845 18.3986 84.3096 19.0237C84.9348 19.6488 85.7826 20 86.6667 20C87.5507 20 88.3986 19.6488 89.0237 19.0237C89.6488 18.3986 90 17.5507 90 16.6667C90 15.7826 89.6488 14.9348 89.0237 14.3096C88.3986 13.6845 87.5507 13.3333 86.6667 13.3333ZM50 16.6667C68.4484 16.6667 83.3333 31.5516 83.3333 50C83.3333 60.9388 78.0737 70.5937 69.9674 76.6667H50H30.0326C21.9263 70.5937 16.6667 60.9388 16.6667 50C16.6667 31.5516 31.5516 16.6667 50 16.6667ZM50 23.3333C41.4251 23.3333 33.7537 27.4047 28.8802 33.7174C28.3398 34.4176 28.0996 35.3038 28.2125 36.181C28.3255 37.0583 28.7823 37.8547 29.4824 38.3952C30.1826 38.9356 31.0688 39.1758 31.946 39.0629C32.8233 38.9499 33.6197 38.4931 34.1602 37.793C37.82 33.0523 43.5282 30 50 30C50.4417 30.0062 50.8802 29.9246 51.2901 29.7599C51.7 29.5952 52.0731 29.3507 52.3877 29.0405C52.7022 28.7304 52.952 28.3608 53.1225 27.9533C53.293 27.5458 53.3808 27.1084 53.3808 26.6667C53.3808 26.2249 53.293 25.7876 53.1225 25.38C52.952 24.9725 52.7022 24.6029 52.3877 24.2928C52.0731 23.9827 51.7 23.7381 51.2901 23.5734C50.8802 23.4087 50.4417 23.3271 50 23.3333ZM66.6667 30.0065C66.0508 30.0065 65.4368 30.3627 65.2018 31.0677L63.3333 36.6667L57.7344 38.5352C56.3244 39.0052 56.3244 40.9948 57.7344 41.4648L63.3333 43.3333L65.2018 48.9323C65.6718 50.3423 67.6615 50.3423 68.1315 48.9323L70 43.3333L75.599 41.4648C77.009 40.9948 77.009 39.0052 75.599 38.5352L70 36.6667L68.1315 31.0677C67.8965 30.3627 67.2825 30.0065 66.6667 30.0065ZM26.6667 46.6667C25.7826 46.6667 24.9348 47.0179 24.3096 47.643C23.6845 48.2681 23.3333 49.1159 23.3333 50C23.3333 50.8841 23.6845 51.7319 24.3096 52.357C24.9348 52.9821 25.7826 53.3333 26.6667 53.3333C27.5507 53.3333 28.3986 52.9821 29.0237 52.357C29.6488 51.7319 30 50.8841 30 50C30 49.1159 29.6488 48.2681 29.0237 47.643C28.3986 47.0179 27.5507 46.6667 26.6667 46.6667ZM55 53.3333C54.4867 53.3333 53.9727 53.6256 53.776 54.2122L52.2201 58.8867L47.5456 60.4427C46.3689 60.836 46.3689 62.4973 47.5456 62.8906L52.2201 64.4466L53.776 69.1211C54.1694 70.2978 55.8306 70.2978 56.224 69.1211L57.7799 64.4466L62.4544 62.8906C63.6311 62.4973 63.6311 60.836 62.4544 60.4427L57.7799 58.8867L56.224 54.2122C56.0273 53.6256 55.5133 53.3333 55 53.3333Z" fill="#151515"/>
</svg>
