<svg width="100" height="100" viewBox="0 0 100 100" fill="none" xmlns="http://www.w3.org/2000/svg">
<path d="M79.9987 13.333C78.2306 13.333 76.5349 14.0354 75.2847 15.2856C74.0344 16.5359 73.332 18.2316 73.332 19.9997C73.3323 20.3794 73.3649 20.7584 73.4297 21.1325L62.2904 30.4163C61.5568 30.144 60.7811 30.003 59.9987 29.9997C58.6928 30.001 57.416 30.3858 56.3268 31.1064L46.6458 26.2627C46.5431 24.5688 45.7983 22.9779 44.5632 21.8142C43.3281 20.6505 41.6957 20.0015 39.9987 19.9997C38.2306 19.9997 36.5349 20.7021 35.2847 21.9523C34.0344 23.2025 33.332 24.8982 33.332 26.6663C33.3339 26.8097 33.3404 26.953 33.3516 27.096L22.9479 34.0296C22.0314 33.5741 21.0222 33.3357 19.9987 33.333C18.2306 33.333 16.5349 34.0354 15.2847 35.2856C14.0344 36.5359 13.332 38.2316 13.332 39.9997C13.332 41.7678 14.0344 43.4635 15.2847 44.7137C16.5349 45.964 18.2306 46.6663 19.9987 46.6663C21.7668 46.6663 23.4625 45.964 24.7127 44.7137C25.963 43.4635 26.6654 41.7678 26.6654 39.9997C26.6633 39.8584 26.6568 39.7173 26.6458 39.5765L37.0495 32.6364C37.966 33.0919 38.9752 33.3303 39.9987 33.333C41.3046 33.3317 42.5814 32.9468 43.6706 32.2262L53.3516 37.07C53.4543 38.7638 54.1991 40.3548 55.4342 41.5185C56.6693 42.6822 58.3017 43.3312 59.9987 43.333C61.7668 43.333 63.4625 42.6306 64.7127 41.3804C65.963 40.1301 66.6654 38.4345 66.6654 36.6663C66.6651 36.2866 66.6325 35.9077 66.5677 35.5335L77.707 26.2497C78.4406 26.522 79.2163 26.663 79.9987 26.6663C81.7668 26.6663 83.4625 25.964 84.7127 24.7137C85.963 23.4635 86.6654 21.7678 86.6654 19.9997C86.6654 18.2316 85.963 16.5359 84.7127 15.2856C83.4625 14.0354 81.7668 13.333 79.9987 13.333ZM76.6654 39.9997C74.8254 39.9997 73.332 41.493 73.332 43.333V86.6663H86.6654V43.333C86.6654 41.493 85.172 39.9997 83.332 39.9997H76.6654ZM36.6654 46.6663C34.8254 46.6663 33.332 48.1597 33.332 49.9997V86.6663H46.6654V49.9997C46.6654 48.1597 45.172 46.6663 43.332 46.6663H36.6654ZM56.6654 53.333C54.8254 53.333 53.332 54.8263 53.332 56.6663V86.6663H66.6654V56.6663C66.6654 54.8263 65.172 53.333 63.332 53.333H56.6654ZM16.6654 59.9997C14.8254 59.9997 13.332 61.493 13.332 63.333V86.6663H26.6654V63.333C26.6654 61.493 25.172 59.9997 23.332 59.9997H16.6654Z" fill="#151515"/>
</svg>
