<svg width="100" height="100" viewBox="0 0 100 100" fill="none" xmlns="http://www.w3.org/2000/svg">
<path d="M18.332 13.3335C15.572 13.3335 13.332 15.5735 13.332 18.3335V28.3335C13.332 31.0935 15.572 33.3335 18.332 33.3335H28.332C31.092 33.3335 33.332 31.0935 33.332 28.3335V18.3335C33.332 15.5735 31.092 13.3335 28.332 13.3335H18.332ZM71.6654 13.3335C68.9054 13.3335 66.6654 15.5735 66.6654 18.3335V28.3335C66.6654 31.0935 68.9054 33.3335 71.6654 33.3335H81.6654C84.4254 33.3335 86.6654 31.0935 86.6654 28.3335V18.3335C86.6654 15.5735 84.4254 13.3335 81.6654 13.3335H71.6654ZM43.332 20.0002C42.448 20.0002 41.6001 20.3514 40.975 20.9765C40.3499 21.6016 39.9987 22.4494 39.9987 23.3335C39.9987 24.2176 40.3499 25.0654 40.975 25.6905C41.6001 26.3156 42.448 26.6668 43.332 26.6668C44.2161 26.6668 45.0639 26.3156 45.6891 25.6905C46.3142 25.0654 46.6654 24.2176 46.6654 23.3335C46.6654 22.4494 46.3142 21.6016 45.6891 20.9765C45.0639 20.3514 44.2161 20.0002 43.332 20.0002ZM56.6654 20.0002C55.7813 20.0002 54.9335 20.3514 54.3083 20.9765C53.6832 21.6016 53.332 22.4494 53.332 23.3335C53.332 24.2176 53.6832 25.0654 54.3083 25.6905C54.9335 26.3156 55.7813 26.6668 56.6654 26.6668C57.5494 26.6668 58.3973 26.3156 59.0224 25.6905C59.6475 25.0654 59.9987 24.2176 59.9987 23.3335C59.9987 22.4494 59.6475 21.6016 59.0224 20.9765C58.3973 20.3514 57.5494 20.0002 56.6654 20.0002ZM23.332 40.0002C22.448 40.0002 21.6001 40.3514 20.975 40.9765C20.3499 41.6016 19.9987 42.4494 19.9987 43.3335C19.9987 44.2176 20.3499 45.0654 20.975 45.6905C21.6001 46.3156 22.448 46.6668 23.332 46.6668C24.2161 46.6668 25.0639 46.3156 25.6891 45.6905C26.3142 45.0654 26.6654 44.2176 26.6654 43.3335C26.6654 42.4494 26.3142 41.6016 25.6891 40.9765C25.0639 40.3514 24.2161 40.0002 23.332 40.0002ZM76.6654 40.0002C75.7813 40.0002 74.9335 40.3514 74.3083 40.9765C73.6832 41.6016 73.332 42.4494 73.332 43.3335C73.332 44.2176 73.6832 45.0654 74.3083 45.6905C74.9335 46.3156 75.7813 46.6668 76.6654 46.6668C77.5494 46.6668 78.3973 46.3156 79.0224 45.6905C79.6475 45.0654 79.9987 44.2176 79.9987 43.3335C79.9987 42.4494 79.6475 41.6016 79.0224 40.9765C78.3973 40.3514 77.5494 40.0002 76.6654 40.0002ZM23.332 53.3335C22.448 53.3335 21.6001 53.6847 20.975 54.3098C20.3499 54.9349 19.9987 55.7828 19.9987 56.6668C19.9987 57.5509 20.3499 58.3987 20.975 59.0239C21.6001 59.649 22.448 60.0002 23.332 60.0002C24.2161 60.0002 25.0639 59.649 25.6891 59.0239C26.3142 58.3987 26.6654 57.5509 26.6654 56.6668C26.6654 55.7828 26.3142 54.9349 25.6891 54.3098C25.0639 53.6847 24.2161 53.3335 23.332 53.3335ZM76.6654 53.3335C75.7813 53.3335 74.9335 53.6847 74.3083 54.3098C73.6832 54.9349 73.332 55.7828 73.332 56.6668C73.332 57.5509 73.6832 58.3987 74.3083 59.0239C74.9335 59.649 75.7813 60.0002 76.6654 60.0002C77.5494 60.0002 78.3973 59.649 79.0224 59.0239C79.6475 58.3987 79.9987 57.5509 79.9987 56.6668C79.9987 55.7828 79.6475 54.9349 79.0224 54.3098C78.3973 53.6847 77.5494 53.3335 76.6654 53.3335ZM18.332 66.6668C15.572 66.6668 13.332 68.9068 13.332 71.6668V81.6668C13.332 84.4268 15.572 86.6668 18.332 86.6668H28.332C31.092 86.6668 33.332 84.4268 33.332 81.6668V71.6668C33.332 68.9068 31.092 66.6668 28.332 66.6668H18.332ZM71.6654 66.6668C68.9054 66.6668 66.6654 68.9068 66.6654 71.6668V81.6668C66.6654 84.4268 68.9054 86.6668 71.6654 86.6668H81.6654C84.4254 86.6668 86.6654 84.4268 86.6654 81.6668V71.6668C86.6654 68.9068 84.4254 66.6668 81.6654 66.6668H71.6654ZM43.332 73.3335C42.448 73.3335 41.6001 73.6847 40.975 74.3098C40.3499 74.9349 39.9987 75.7828 39.9987 76.6668C39.9987 77.5509 40.3499 78.3987 40.975 79.0239C41.6001 79.649 42.448 80.0002 43.332 80.0002C44.2161 80.0002 45.0639 79.649 45.6891 79.0239C46.3142 78.3987 46.6654 77.5509 46.6654 76.6668C46.6654 75.7828 46.3142 74.9349 45.6891 74.3098C45.0639 73.6847 44.2161 73.3335 43.332 73.3335ZM56.6654 73.3335C55.7813 73.3335 54.9335 73.6847 54.3083 74.3098C53.6832 74.9349 53.332 75.7828 53.332 76.6668C53.332 77.5509 53.6832 78.3987 54.3083 79.0239C54.9335 79.649 55.7813 80.0002 56.6654 80.0002C57.5494 80.0002 58.3973 79.649 59.0224 79.0239C59.6475 78.3987 59.9987 77.5509 59.9987 76.6668C59.9987 75.7828 59.6475 74.9349 59.0224 74.3098C58.3973 73.6847 57.5494 73.3335 56.6654 73.3335Z" fill="#151515"/>
</svg>
