<svg width="100" height="100" viewBox="0 0 100 100" fill="none" xmlns="http://www.w3.org/2000/svg">
<path d="M36.668 10C32.9846 10 30.0013 12.9833 30.0013 16.6667V16.6667C30.0013 16.7576 29.9417 16.827 29.8514 16.8156C29.3495 16.7523 28.8531 16.6667 28.3346 16.6667C20.0513 16.6667 13.3346 23.3833 13.3346 31.6667C13.3346 32.1495 13.3635 32.6241 13.4166 33.0911C13.6257 34.9313 12.9932 36.8072 11.6752 38.1083V38.1083C9.53868 40.2175 11.4548 43.3333 14.4571 43.3333H21.8465C24.5093 43.3333 26.668 41.1747 26.668 38.5118V38.5118C26.668 36.7968 25.6378 35.2862 24.6201 33.9058C23.8136 32.8119 23.3346 31.4653 23.3346 30C23.3346 26.3167 26.318 23.3333 30.0013 23.3333C33.6846 23.3333 36.668 26.3167 36.668 30V30C36.668 34.3047 33.3346 38.3893 33.3346 42.694V46.6667C33.3346 48.51 31.8413 50 30.0013 50H16.0185C10.8544 50 6.46904 54.4984 9.22407 58.8663C9.66429 59.5642 10.1549 60.2273 10.6909 60.8503C12.4502 62.8957 13.3346 65.6354 13.3346 68.3333V68.3333C13.3346 71.9998 14.6553 75.3409 16.8455 77.9279C21.2698 83.1537 28.1541 90 35.0013 90V90C39.6046 90 43.3346 86.27 43.3346 81.6667V74.8215C43.3346 72.1587 41.176 70 38.5131 70V70C36.7981 70 35.2875 71.0301 33.9071 72.0479C32.8132 72.8544 31.4666 73.3333 30.0013 73.3333C26.318 73.3333 23.3346 70.35 23.3346 66.6667C23.3346 62.9833 26.318 60 30.0013 60C31.4666 60 32.8132 60.479 33.9071 61.2855C35.2875 62.3032 36.7981 63.3333 38.5131 63.3333V63.3333C41.176 63.3333 43.3346 61.1747 43.3346 58.5118V16.6667C43.3346 12.9833 40.3513 10 36.668 10ZM56.668 10C52.9846 10 50.0013 12.9833 50.0013 16.6667V25.1785C50.0013 27.8413 52.16 30 54.8228 30V30C56.5378 30 58.0484 28.9699 59.4289 27.9521C60.5227 27.1456 61.8693 26.6667 63.3346 26.6667C67.018 26.6667 70.0013 29.65 70.0013 33.3333C70.0013 37.0167 67.018 40 63.3346 40C61.8693 40 60.5227 39.521 59.4289 38.7145C58.0484 37.6968 56.5378 36.6667 54.8228 36.6667V36.6667C52.16 36.6667 50.0013 38.8253 50.0013 41.4882V81.6667C50.0013 86.27 53.7313 90 58.3346 90C60.2965 90 62.0961 89.3199 63.5156 88.1833C66.2719 85.9762 69.1595 83.0908 72.2762 81.431V81.431C77.0653 78.8806 73.6219 73.3333 68.196 73.3333H63.3346C61.4946 73.3333 60.0013 71.8433 60.0013 70V69.3616C60.0013 65.0571 56.668 60.9711 56.668 56.6667V56.6667C56.668 52.9833 59.6513 50 63.3346 50C67.018 50 70.0013 52.9833 70.0013 56.6667C70.0013 58.5694 69.1936 60.2721 67.9099 61.4811C67.2096 62.1406 66.668 63.0004 66.668 63.9623V63.9623C66.668 65.4559 67.8787 66.6667 69.3723 66.6667H77.6351C78.8347 66.6667 79.5794 64.478 79.1806 63.3466V63.3466C78.7626 62.1604 79.732 61.749 80.7747 61.0457C84.326 58.65 86.668 54.5983 86.668 50C86.668 45.8532 85.152 42.0642 82.645 39.1497C80.8857 37.1043 80.0013 34.3646 80.0013 31.6667V31.6667C80.0013 23.3833 73.2846 16.6667 65.0013 16.6667C64.4829 16.6667 63.9864 16.7523 63.4845 16.8156C63.3943 16.827 63.3346 16.7576 63.3346 16.6667V16.6667C63.3346 12.9833 60.3513 10 56.668 10Z" fill="#151515"/>
</svg>
