<svg width="19" height="18" viewBox="0 0 19 18" fill="none" xmlns="http://www.w3.org/2000/svg">
<path d="M12.3537 6.40955L6.30687 9.90409C6.19553 9.96772 6.0695 10.0012 5.94125 10.0012C5.813 10.0012 5.68697 9.96772 5.57562 9.90409L3.63922 8.78893C3.52943 8.7239 3.43857 8.63128 3.37566 8.52027C3.31275 8.40926 3.27999 8.28371 3.28062 8.15612V5.9258C3.28071 5.79752 3.31453 5.67152 3.37871 5.56044C3.44289 5.44937 3.53515 5.35713 3.64625 5.29299L5.57703 4.17784C5.68838 4.1142 5.81441 4.08073 5.94266 4.08073C6.0709 4.08073 6.19693 4.1142 6.30828 4.17784L8.23906 5.29299C8.35016 5.35713 8.44242 5.44937 8.5066 5.56044C8.57078 5.67152 8.6046 5.79752 8.60469 5.9258V6.99596C8.60472 7.02789 8.61313 7.05926 8.62906 7.08694C8.64499 7.11462 8.66789 7.13764 8.69549 7.15371C8.72308 7.16978 8.75441 7.17835 8.78634 7.17855C8.81827 7.17875 8.8497 7.17059 8.8775 7.15487L9.88297 6.57409C9.93835 6.54195 9.98428 6.49577 10.0161 6.44022C10.048 6.38468 10.0646 6.32171 10.0644 6.25768V5.08205C10.0643 4.95394 10.0306 4.82808 9.96671 4.71705C9.9028 4.60601 9.81089 4.51367 9.70016 4.44924L6.30125 2.49174C6.19013 2.42742 6.06401 2.39355 5.93562 2.39355C5.80723 2.39355 5.68112 2.42742 5.57 2.49174L2.17812 4.44924C2.06703 4.51338 1.97476 4.60562 1.91059 4.71669C1.84641 4.82777 1.81258 4.95377 1.8125 5.08205V8.99987C1.81258 9.12815 1.84641 9.25415 1.91059 9.36523C1.97476 9.4763 2.06703 9.56854 2.17812 9.63268L5.57 11.5902C5.68112 11.6545 5.80723 11.6884 5.93562 11.6884C6.06401 11.6884 6.19013 11.6545 6.30125 11.5902L12.3481 8.09565C12.4595 8.03201 12.5855 7.99854 12.7137 7.99854C12.842 7.99854 12.968 8.03201 13.0794 8.09565L15.0102 9.2108C15.1213 9.27494 15.2135 9.36718 15.2777 9.47826C15.3419 9.58933 15.3757 9.71533 15.3758 9.84362V12.0739C15.3757 12.2022 15.3419 12.3282 15.2777 12.4393C15.2135 12.5504 15.1213 12.6426 15.0102 12.7067L13.085 13.8219C12.9737 13.8855 12.8476 13.919 12.7194 13.919C12.5911 13.919 12.4651 13.8855 12.3537 13.8219L10.423 12.7067C10.3119 12.6426 10.2196 12.5504 10.1554 12.4393C10.0913 12.3282 10.0574 12.2022 10.0573 12.0739V11.0024C10.0575 10.9704 10.0492 10.9389 10.0332 10.9112C10.0173 10.8835 9.99434 10.8604 9.96664 10.8445C9.93894 10.8285 9.90751 10.8201 9.87553 10.8202C9.84355 10.8202 9.81215 10.8288 9.78453 10.8449L8.77906 11.4242C8.72378 11.4565 8.67792 11.5027 8.64609 11.5582C8.61425 11.6137 8.59755 11.6766 8.59766 11.7406V12.9177C8.59774 13.0458 8.63141 13.1716 8.69532 13.2827C8.75923 13.3937 8.85114 13.4861 8.96187 13.5505L12.3537 15.508C12.4649 15.5723 12.591 15.6062 12.7194 15.6062C12.8478 15.6062 12.9739 15.5723 13.085 15.508L16.4769 13.5505C16.588 13.4864 16.6802 13.3941 16.7444 13.283C16.8086 13.172 16.8424 13.046 16.8425 12.9177V8.99987C16.8424 8.87158 16.8086 8.74558 16.7444 8.63451C16.6802 8.52343 16.588 8.43119 16.4769 8.36705L13.085 6.40955C12.9739 6.34524 12.8478 6.31137 12.7194 6.31137C12.591 6.31137 12.4649 6.34524 12.3537 6.40955Z" fill="#151515"/>
</svg>
