<svg width="100" height="100" viewBox="0 0 100 100" xmlns="http://www.w3.org/2000/svg">
<path d="M17.8232 20.0312C17.21 19.4199 17.21 18.4316 17.8232 17.8205C18.4273 17.2109 19.4158 17.2109 20.0293 17.8205L25.1277 22.9219C25.741 23.5312 25.741 24.5217 25.1277 25.1309C24.8256 25.4377 24.4229 25.59 24.0293 25.59C23.6264 25.59 23.2238 25.4377 22.9217 25.1309L17.8232 20.0312ZM13.265 48.4377H6.05215C5.1918 48.4377 4.49609 49.1371 4.49609 50.0002C4.49609 50.8633 5.1918 51.5627 6.05215 51.5627H13.265C14.1346 51.5627 14.8303 50.8633 14.8303 50.0002C14.8303 49.1371 14.1346 48.4377 13.265 48.4377ZM22.9217 74.8693L17.8232 79.9689C17.21 80.5803 17.21 81.5686 17.8232 82.1797C18.1254 82.4848 18.5279 82.6369 18.9217 82.6369C19.3244 82.6369 19.7271 82.4846 20.0293 82.1797L25.1277 77.0781C25.741 76.4689 25.741 75.4785 25.1277 74.8693C24.5234 74.26 23.5348 74.26 22.9217 74.8693ZM49.9969 14.8301C50.8664 14.8301 51.5621 14.1311 51.5621 13.2676V6.05469C51.5621 5.1916 50.8664 4.49219 49.9969 4.49219C49.1365 4.49219 48.4408 5.1916 48.4408 6.05469V13.2676C48.4408 14.1311 49.1363 14.8301 49.9969 14.8301ZM79.9643 17.8205L74.866 22.9219C74.2617 23.5312 74.2617 24.5217 74.866 25.1309C75.1772 25.4355 75.5707 25.59 75.9734 25.59C76.3764 25.59 76.7697 25.4355 77.0811 25.1309L82.1795 20.0312C82.7928 19.4199 82.7928 18.4316 82.1795 17.8205C81.566 17.2109 80.5777 17.2109 79.9643 17.8205ZM93.9414 48.4377H86.7287C85.8682 48.4377 85.1725 49.1371 85.1725 50.0002C85.1725 50.8633 85.8682 51.5627 86.7287 51.5627H93.9414C94.8109 51.5627 95.5066 50.8633 95.5066 50.0002C95.5065 49.1371 94.8109 48.4377 93.9414 48.4377ZM77.0811 74.8693C76.4678 74.2578 75.4793 74.2578 74.866 74.8693C74.2617 75.4785 74.2617 76.4689 74.866 77.0781L79.9643 82.1797C80.2756 82.4848 80.6691 82.6369 81.0719 82.6369C81.4748 82.6369 81.8682 82.4846 82.1795 82.1797C82.7928 81.5686 82.7928 80.5803 82.1795 79.9689L77.0811 74.8693ZM49.9969 85.1703C49.1365 85.1703 48.4408 85.8693 48.4408 86.7328V93.9455C48.4408 94.8086 49.1365 95.508 49.9969 95.508C50.8664 95.508 51.5621 94.8086 51.5621 93.9455V86.7328C51.5619 85.8693 50.8664 85.1703 49.9969 85.1703ZM78.9301 47.9592C80.0832 46.4258 80.3854 44.5783 79.7904 42.758C79.2045 40.9379 77.8682 39.623 76.0375 39.0566L63.5617 35.2012C62.976 35.0217 62.5549 34.7166 62.2068 34.2146L54.683 23.5391C53.5756 21.9727 51.9189 21.1113 49.9967 21.1113C48.0836 21.1113 46.4178 21.9727 45.3195 23.5391L37.7957 34.2146C37.4387 34.7166 37.0266 35.0195 36.4408 35.2012L23.965 39.0566C22.1344 39.623 20.798 40.9377 20.2029 42.758C19.6172 44.5801 19.9193 46.4279 21.0633 47.9592L28.8984 58.4121C29.2647 58.9045 29.4295 59.3967 29.4109 60.01L29.2279 73.0686C29.2004 74.9824 30.0334 76.6582 31.5895 77.7832C32.5963 78.5176 33.7313 78.8928 34.9029 78.8928C35.5344 78.8928 36.1662 78.7852 36.7977 78.5707L49.1635 74.3555C49.74 74.1562 50.2619 74.1562 50.8385 74.3555L63.2043 78.5707C65.0074 79.1877 66.8656 78.9086 68.4125 77.7834C69.9594 76.6586 70.8014 74.9828 70.774 73.0687L70.582 60.0102C70.5729 59.3969 70.7375 58.9047 71.1037 58.4123L78.9301 47.9592Z" fill="#151515"/>
</svg>
